<svg height="496pt" viewBox="0 0 496 496" width="496pt" xmlns="http://www.w3.org/2000/svg"><path d="m209.375 296c-3.847656 0-7.621094-1.558594-10.34375-4.28125l-31.574219-31.574219c-5.167969-5.167969-12.335937-8.144531-19.65625-8.144531-15.328125 0-27.800781 12.472656-27.800781 27.800781 0 7.320313 2.96875 14.488281 8.144531 19.65625l71.855469 71.855469v48.960938c21.441406 5.09375 41.679688 14.636718 59.28125 28.214843l.175781-.128906c15.984375-10.65625 33.871094-17.886719 52.542969-21.558594v-39.488281l95.855469-95.855469c5.175781-5.175781 8.144531-12.335937 8.144531-19.65625 0-15.328125-12.472656-27.800781-27.800781-27.800781-7.320313 0-14.488281 2.96875-19.65625 8.144531l-32.40625 32.40625c-2.191407 2.191407-5.234375 3.449219-8.335938 3.449219-6.503906 0-11.800781-5.289062-11.800781-11.800781 0-3.109375 1.257812-6.152344 3.457031-8.34375l71.574219-71.574219c5.785156-5.785156 8.96875-13.472656 8.96875-21.65625 0-16.882812-13.742188-30.625-30.625-30.625-8.175781 0-15.871094 3.183594-21.65625 8.96875l-18.75 18.75c-2.753906 2.753906-5.753906 5.265625-8.96875 7.511719v-27.277344c0-36.03125 7.191406-71.105469 21.390625-104.21875 1.738281-4.03125 2.609375-8.308594 2.609375-12.710937v-2.785157c0-17.773437-14.464844-32.238281-32.238281-32.238281-12.738281 0-24.296875 7.511719-29.472657 19.152344l-6.113281 13.742187c-7.847656 17.671875-13.464843 36.183594-16.742187 55.234375l-39.160156-39.160156c-5.777344-5.785156-13.464844-8.96875-21.648438-8.96875-16.882812 0-30.625 13.742188-30.625 30.625 0 8.175781 3.183594 15.871094 8.96875 21.65625l50.75 50.75c2.722656 2.722656 4.28125 6.488281 4.28125 10.34375 0 8.066406-6.558594 14.625-14.625 14.625-3.847656 0-7.621094-1.558594-10.34375-4.28125l-21.917969-21.917969c-6.320312-6.320312-14.722656-9.800781-23.65625-9.800781-18.449219 0-33.457031 15.007812-33.457031 33.457031 0 8.933594 3.480469 17.335938 9.800781 23.65625l81.917969 81.917969c2.722656 2.722656 4.28125 6.488281 4.28125 10.34375 0 8.066406-6.558594 14.625-14.625 14.625zm0 0" fill="#f0bc5e"/><path d="m467.3125 480-19.167969-19.167969c-28.914062-28.910156-67.34375-44.832031-108.234375-44.832031-28.476562 0-56.0625 7.9375-80.222656 22.832031-27.734375-19.929687-60.992188-30.832031-95.480469-30.832031-50.917969 0-98.054687 23.046875-129.3125 63.246094l-6.804687 8.753906h-28.089844v16h496v-16zm-127.390625-48c36.597656 0 71.023437 14.257812 96.902344 40.144531l7.863281 7.855469h-137.617188l-33.269531-29.945312c-.242187-.214844-.511719-.398438-.753906-.613282 20.410156-11.433594 43.3125-17.441406 66.875-17.441406zm-175.714844-8c36.570313 0 71.6875 13.480469 98.882813 37.945312l20.0625 18.054688h-234.753906c28.21875-35.59375 70.328124-56 115.808593-56zm0 0"/><path d="m280 328h16v16h-16zm0 0"/><path d="m232 384h16v16h-16zm0 0"/><path d="m264 264h16v16h-16zm0 0"/><path d="m208 208h16v16h-16zm0 0"/><path d="m272 152h16v16h-16zm0 0"/><path d="m32 96c-13.230469 0-24-10.769531-24-24s10.769531-24 24-24 24 10.769531 24 24-10.769531 24-24 24zm0-32c-4.414062 0-8 3.59375-8 8s3.585938 8 8 8 8-3.59375 8-8-3.585938-8-8-8zm0 0"/><path d="m32 200c-17.648438 0-32-14.351562-32-32s14.351562-32 32-32 32 14.351562 32 32-14.351562 32-32 32zm0-48c-8.824219 0-16 7.175781-16 16s7.175781 16 16 16 16-7.175781 16-16-7.175781-16-16-16zm0 0"/><path d="m24 0h16v16h-16zm0 0"/><path d="m464 152c-13.230469 0-24-10.769531-24-24s10.769531-24 24-24 24 10.769531 24 24-10.769531 24-24 24zm0-32c-4.414062 0-8 3.59375-8 8s3.585938 8 8 8 8-3.59375 8-8-3.585938-8-8-8zm0 0"/><path d="m464 64c-17.648438 0-32-14.351562-32-32s14.351562-32 32-32 32 14.351562 32 32-14.351562 32-32 32zm0-48c-8.824219 0-16 7.175781-16 16s7.175781 16 16 16 16-7.175781 16-16-7.175781-16-16-16zm0 0"/><path d="m456 184h16v16h-16zm0 0"/></svg>