<svg height="496pt" viewBox="-43 0 495 496" width="496pt" xmlns="http://www.w3.org/2000/svg"><g fill="#f0bc5e"><path d="m96.5 311.503906v176.496094h-48v-167.503906zm0 0"/><path d="m272.5 104h-192c-17.648438 0-32 14.351562-32 32v64c0 17.648438 14.351562 32 32 32h50.792969c6.597656-18.632812 24.320312-32 45.207031-32s38.617188 13.367188 45.207031 32h50.792969c17.648438 0 32-14.351562 32-32v-64c0-17.648438-14.351562-32-32-32zm0 0"/><path d="m256.5 311.503906v176.496094h48v-167.503906zm0 0"/></g><path d="m80.90625 104c3.410156-41.070312 32.769531-74.800781 71.59375-84.855469v84.855469h16v-87.617188c2.640625-.214843 5.304688-.382812 8-.382812s5.359375.167969 8 .382812v87.617188h16v-84.855469c38.824219 10.054688 68.183594 43.785157 71.59375 84.855469h.40625c5.777344 0 11.128906 1.65625 15.816406 4.351562-1.953125-60.0625-51.289062-108.351562-111.816406-108.351562s-109.863281 48.289062-111.816406 108.351562c4.6875-2.695312 10.039062-4.351562 15.816406-4.351562zm0 0"/><path d="m176.5 272c13.230469 0 24-10.769531 24-24s-10.769531-24-24-24-24 10.769531-24 24 10.769531 24 24 24zm0-32c4.414062 0 8 3.59375 8 8s-3.585938 8-8 8-8-3.59375-8-8 3.585938-8 8-8zm0 0"/><path d="m99.8125 136c-10.648438 0-19.3125 8.664062-19.3125 19.3125v25.375c0 10.648438 8.664062 19.3125 19.3125 19.3125h16c5.09375 0 10.070312-2.0625 13.65625-5.65625l25.382812-25.375c3.585938-3.601562 5.648438-8.578125 5.648438-13.65625 0-10.648438-8.664062-19.3125-19.3125-19.3125zm44.6875 19.3125c0 .871094-.351562 1.726562-.96875 2.34375l-25.382812 25.375c-.609376.617188-1.464844.96875-2.335938.96875h-16c-1.824219 0-3.3125-1.488281-3.3125-3.3125v-25.375c0-1.824219 1.488281-3.3125 3.3125-3.3125h41.375c1.824219 0 3.3125 1.488281 3.3125 3.3125zm0 0"/><path d="m253.1875 136h-41.375c-10.648438 0-19.3125 8.664062-19.3125 19.3125 0 5.078125 2.0625 10.054688 5.65625 13.65625l25.367188 25.367188c3.59375 3.601562 8.570312 5.664062 13.664062 5.664062h16c10.648438 0 19.3125-8.664062 19.3125-19.3125v-25.375c0-10.648438-8.664062-19.3125-19.3125-19.3125zm3.3125 44.6875c0 1.824219-1.488281 3.3125-3.3125 3.3125h-16c-.871094 0-1.726562-.351562-2.34375-.96875l-25.367188-25.367188c-.625-.625-.976562-1.480468-.976562-2.351562 0-1.824219 1.488281-3.3125 3.3125-3.3125h41.375c1.824219 0 3.3125 1.488281 3.3125 3.3125zm0 0"/><path d="m408.5 236c0-41.902344-34.097656-76-76-76h-28v16h28c33.089844 0 60 26.910156 60 60 0 31.742188-24.792969 57.734375-56.023438 59.800781-.105468-13.144531-10.808593-23.800781-23.976562-23.800781v-8c0-13.230469-10.769531-24-24-24s-24 10.769531-24 24v8c-13.230469 0-24 10.769531-24 24v4.359375l-16-3v-11.589844c25.183594-6.554687 44.144531-27.96875 47.433594-53.769531h-16.167969c-2.648437 15.480469-12.816406 28.648438-26.769531 35.320312 2.222656-6.03125 3.503906-12.519531 3.503906-19.320312 0-30.878906-25.128906-56-56-56s-56 25.121094-56 56c0 6.800781 1.28125 13.289062 3.503906 19.320312-13.953125-6.664062-24.121094-19.839843-26.769531-35.320312h-16.167969c3.289063 25.800781 22.25 47.214844 47.433594 53.769531v11.589844l-16 3v-4.359375c0-13.230469-10.769531-24-24-24v-8c0-13.230469-10.769531-24-24-24s-24 10.769531-24 24v8c-13.230469 0-24 10.769531-24 24l-.007812 32.953125c-9.871094 10.160156-15.992188 23.863281-15.992188 38.878906v128.167969h352v-128.167969c0-15.023437-6.121094-28.726562-16-38.894531v-17.144531c40.039062-2.097657 72-35.234375 72-75.792969zm-128 28c0-4.40625 3.585938-8 8-8s8 3.59375 8 8v8h-16zm-24 32c0-4.40625 3.585938-8 8-8h48c4.414062 0 8 3.59375 8 8v21.472656c-4.304688-2.058594-8.816406-3.761718-13.679688-4.671875l-50.320312-9.441406zm-112-2.113281c9.078125 6.351562 20.105469 10.113281 32 10.113281s22.921875-3.761719 32-10.113281v8.570312c-1.734375 3.824219-9.550781 17.542969-32 17.542969-22.34375 0-30.222656-13.695312-32-17.550781zm32-85.886719c22.054688 0 40 17.945312 40 40s-17.945312 40-40 40-40-17.945312-40-40 17.945312-40 40-40zm-44.441406 104.976562c5.210937 8.679688 17.816406 23.023438 44.441406 23.023438s39.230469-14.34375 44.441406-23.023438l11.09375 2.078126c-2.222656 20.304687-15.199218 37.792968-34.511718 45.519531l-5.023438 2.011719v37.414062h-32v-37.414062l-5.03125-2.011719c-19.3125-7.726563-32.289062-25.214844-34.511719-45.519531zm28.441406 103.023438h32v16h-32zm0 32h32v32h-32zm-104-184c0-4.40625 3.585938-8 8-8s8 3.59375 8 8v8h-16zm-16 24h48c4.414062 0 8 3.59375 8 8v7.359375l-50.320312 9.441406c-4.871094.910157-9.382813 2.625-13.6875 4.671875l.007812-21.472656c0-4.40625 3.585938-8 8-8zm-24 79.832031c0-19.238281 13.726562-35.769531 32.632812-39.3125l56.007813-10.503906c3.007813 23.839844 17.625 44.519531 39.359375 55.175781v106.808594h-48v-48h-16v48h-16v-48h-16v48h-32zm320 112.167969h-32v-48h-16v48h-16v-48h-16v48h-48v-106.808594c21.734375-10.65625 36.351562-31.335937 39.359375-55.175781l56.007813 10.503906c18.90625 3.542969 32.632812 20.082031 32.632812 39.3125zm0 0"/></svg>